name ./resultDataOpenSim/trcMotMarkerGrf/sub06/grf-04-06.mot
datacolumns 19
datarows 15
range 0.55200000 0.60800000
endheader

                time	     ground_force_vx	     ground_force_vy	     ground_force_vz	     ground_force_px	     ground_force_py	     ground_force_pz	   l_ground_force_vx	   l_ground_force_vy	   l_ground_force_vz	   l_ground_force_px	   l_ground_force_py	   l_ground_force_pz	     ground_torque_x	     ground_torque_y	     ground_torque_z	   l_ground_torque_x	   l_ground_torque_y	   l_ground_torque_z	
          0.55200000	        112.29528655	        631.60506830	        -25.63010116	         -0.84095980	          0.00000000	          0.08966146	          0.00000000	          0.00000000	          0.00000000	          0.00000000	          0.00000000	          0.00000000	          0.00000000	          1.38600191	          0.00000000	          0.00000000	          0.00000000	          0.00000000	
          0.55600000	        116.07857466	        641.16844510	        -25.12888605	         -0.83916501	          0.00000000	          0.08958497	          0.00000000	          0.00000000	          0.00000000	          0.00000000	          0.00000000	          0.00000000	          0.00000000	          1.32317015	          0.00000000	          0.00000000	          0.00000000	          0.00000000	
          0.56000000	        120.72157301	        650.52311042	        -24.64263026	         -0.83766615	          0.00000000	          0.08945699	          0.00000000	          0.00000000	          0.00000000	          0.00000000	          0.00000000	          0.00000000	          0.00000000	          1.25746061	          0.00000000	          0.00000000	          0.00000000	          0.00000000	
          0.56400000	        126.25344885	        659.37605431	        -24.22196803	         -0.83643545	          0.00000000	          0.08929475	          0.00000000	          0.00000000	          0.00000000	          0.00000000	          0.00000000	          0.00000000	          0.00000000	          1.18876370	          0.00000000	          0.00000000	          0.00000000	          0.00000000	
          0.56800000	        132.62769020	        667.44054848	        -23.87527708	         -0.83543648	          0.00000000	          0.08911340	          0.00000000	          0.00000000	          0.00000000	          0.00000000	          0.00000000	          0.00000000	          0.00000000	          1.11924967	          0.00000000	          0.00000000	          0.00000000	          0.00000000	
          0.57200000	        139.72042873	        674.50204461	        -23.56982316	         -0.83463089	          0.00000000	          0.08892411	          0.00000000	          0.00000000	          0.00000000	          0.00000000	          0.00000000	          0.00000000	          0.00000000	          1.05357311	          0.00000000	          0.00000000	          0.00000000	          0.00000000	
          0.57600000	        147.33833063	        680.43419336	        -23.24599259	         -0.83397485	          0.00000000	          0.08873184	          0.00000000	          0.00000000	          0.00000000	          0.00000000	          0.00000000	          0.00000000	          0.00000000	          0.99818421	          0.00000000	          0.00000000	          0.00000000	          0.00000000	
          0.58000000	        155.24513261	        685.16435115	        -22.83515035	         -0.83342080	          0.00000000	          0.08853437	          0.00000000	          0.00000000	          0.00000000	          0.00000000	          0.00000000	          0.00000000	          0.00000000	          0.95985640	          0.00000000	          0.00000000	          0.00000000	          0.00000000	
          0.58400000	        163.19857226	        688.64541298	        -22.27515850	         -0.83291874	          0.00000000	          0.08832911	          0.00000000	          0.00000000	          0.00000000	          0.00000000	          0.00000000	          0.00000000	          0.00000000	          0.94386470	          0.00000000	          0.00000000	          0.00000000	          0.00000000	
          0.58800000	        170.97790925	        690.86016574	        -21.52527548	         -0.83242731	          0.00000000	          0.08811753	          0.00000000	          0.00000000	          0.00000000	          0.00000000	          0.00000000	          0.00000000	          0.00000000	          0.95244427	          0.00000000	          0.00000000	          0.00000000	          0.00000000	
          0.59200000	        178.39263655	        691.83261827	        -20.58157438	         -0.83191421	          0.00000000	          0.08790180	          0.00000000	          0.00000000	          0.00000000	          0.00000000	          0.00000000	          0.00000000	          0.00000000	          0.98405926	          0.00000000	          0.00000000	          0.00000000	          0.00000000	
          0.59600000	        185.27884066	        691.62417316	        -19.48872626	         -0.83134747	          0.00000000	          0.08767847	          0.00000000	          0.00000000	          0.00000000	          0.00000000	          0.00000000	          0.00000000	          0.00000000	          1.03365177	          0.00000000	          0.00000000	          0.00000000	          0.00000000	
          0.60000000	        191.49697000	        690.32077636	        -18.34017367	         -0.83070501	          0.00000000	          0.08744393	          0.00000000	          0.00000000	          0.00000000	          0.00000000	          0.00000000	          0.00000000	          0.00000000	          1.09363935	          0.00000000	          0.00000000	          0.00000000	          0.00000000	
          0.60400000	        196.94272939	        688.01963509	        -17.25989012	         -0.82997107	          0.00000000	          0.08719284	          0.00000000	          0.00000000	          0.00000000	          0.00000000	          0.00000000	          0.00000000	          0.00000000	          1.15519733	          0.00000000	          0.00000000	          0.00000000	          0.00000000	
          0.60800000	        201.56879031	        684.81238463	        -16.37047525	         -0.82914317	          0.00000000	          0.08691857	          0.00000000	          0.00000000	          0.00000000	          0.00000000	          0.00000000	          0.00000000	          0.00000000	          1.20938241	          0.00000000	          0.00000000	          0.00000000	          0.00000000	
